# xmcd
#
# Track frame offsets: 
#        150
#        12240
#        22021
#        34636
#        44373
#        56123
#        68756
#        79597
#        92522
#        103283
#        115262
#        129375
#        141470
#        157510
#        170659
#        180546
#        191194
#        206560
#        217432
#        230199
#        241642
#
# Disc length: 3413 seconds
#
# Revision: 1
# Processed by: cddbd v1.5.2PL0 Copyright (c) Steve Scherf et al.
# Submitted via: ExactAudioCopyFreeDBPlugin 1.0
#
DISCID=2c0d5315
DTITLE=Various Artist - Memphis Soul Beat:  Booker T and The MGs Meet T
DTITLE=he Mar-Keys
DYEAR=2013
DGENRE=Rhythm and Blues
TTITLE0=The Mar-Keys - Wimp Burger
TTITLE1=The Mar-Keys - Straight From the Can
TTITLE2=The Mar-Keys - 'Cause I Love You
TTITLE3=The Mar-Keys - Squint Eye
TTITLE4=The Mar-Keys - Pop Eye Rider
TTITLE5=The Mar-Keys - It's Gonna Work Out Fine
TTITLE6=The Mar-Keys - Sit Still
TTITLE7=The Mar-Keys - Too Pooped to Popeye
TTITLE8=The Mar-Keys - Sweet-P Crawl
TTITLE9=The Mar-Keys - Muscles a Comin'
TTITLE10=The Mar-Keys - Sailor Man Waltz
TTITLE11=Booker T. and the M.G.'s - Rinky Dink
TTITLE12=Booker T. and the M.G.'s - I Got a Woman
TTITLE13=Booker T. and the M.G.'s - Mo' Onions
TTITLE14=Booker T. and the M.G.'s - Twist and Shout
TTITLE15=Booker T. and the M.G.'s - Stranger on the Shore
TTITLE16=Booker T. and the M.G.'s - Lonely Avenue
TTITLE17=Booker T. and the M.G.'s - One Who Really Loves You
TTITLE18=Booker T. and the M.G.'s - I Can't Sit Down
TTITLE19=Booker T. and the M.G.'s - A Woman a Lover a Friend
TTITLE20=Booker T. and the M.G.'s - Comin' Home Baby
EXTD=
EXTT0=
EXTT1=
EXTT2=
EXTT3=
EXTT4=
EXTT5=
EXTT6=
EXTT7=
EXTT8=
EXTT9=
EXTT10=
EXTT11=
EXTT12=
EXTT13=
EXTT14=
EXTT15=
EXTT16=
EXTT17=
EXTT18=
EXTT19=
EXTT20=
PLAYORDER=
